<?xml version="1.0" encoding="utf-8"?>
<svg xmlns="http://www.w3.org/2000/svg" xmlns:xlink="http://www.w3.org/1999/xlink" style="margin: auto; background: ; display: block; shape-rendering: auto;" width="200px" height="200px" viewBox="0 0 100 100" preserveAspectRatio="xMidYMid">
<g transform="translate(50 50)">
<g>
<animateTransform attributeName="transform" type="rotate" values="0;36" keyTimes="0;1" dur="0.6711409395973155s" repeatCount="indefinite"></animateTransform><path d="M31.523800532296228 -5.5 L39.52380053229623 -5.5 L39.52380053229623 5.5 L31.523800532296228 5.5 A32 32 0 0 1 28.736109245522265 14.079631580031126 L28.736109245522265 14.079631580031126 L35.208245200521844 18.781913598370913 L28.74260742530464 27.681100536495336 L22.27047147030506 22.97881851815555 A32 32 0 0 1 14.972200931388894 28.281322445566747 L14.972200931388894 28.281322445566747 L17.444336886388474 35.88977457592797 L6.982715207141784 39.288961514052396 L4.510579252142205 31.68050938369117 A32 32 0 0 1 -4.510579252142201 31.68050938369117 L-4.510579252142201 31.68050938369117 L-6.98271520714178 39.288961514052396 L-17.44433688638847 35.88977457592798 L-14.97220093138889 28.28132244556675 A32 32 0 0 1 -22.270471470305058 22.97881851815555 L-22.270471470305058 22.97881851815555 L-28.742607425304637 27.681100536495336 L-35.208245200521844 18.781913598370917 L-28.736109245522265 14.07963158003113 A32 32 0 0 1 -31.523800532296228 5.500000000000004 L-31.523800532296228 5.500000000000004 L-39.52380053229623 5.500000000000005 L-39.52380053229623 -5.499999999999996 L-31.523800532296228 -5.4999999999999964 A32 32 0 0 1 -28.736109245522268 -14.079631580031123 L-28.736109245522268 -14.079631580031123 L-35.20824520052185 -18.781913598370906 L-28.742607425304644 -27.68110053649533 L-22.270471470305065 -22.978818518155546 A32 32 0 0 1 -14.97220093138891 -28.28132244556674 L-14.97220093138891 -28.28132244556674 L-17.44433688638849 -35.889774575927966 L-6.9827152071417755 -39.288961514052396 L-4.510579252142195 -31.68050938369117 A32 32 0 0 1 4.5105792521421835 -31.680509383691174 L4.5105792521421835 -31.680509383691174 L6.982715207141761 -39.2889615140524 L17.444336886388477 -35.88977457592797 L14.972200931388901 -28.281322445566744 A32 32 0 0 1 22.270471470305043 -22.978818518155563 L22.270471470305043 -22.978818518155563 L28.742607425304623 -27.68110053649535 L35.208245200521844 -18.781913598370906 L28.736109245522268 -14.07963158003112 A32 32 0 0 1 31.523800532296224 -5.500000000000022 M0 -20A20 20 0 1 0 0 20 A20 20 0 1 0 0 -20" fill="#0b6307"></path></g></g>
<!-- [ldio] generated by https://loading.io/ --></svg>